<svg width="100" height="100" viewBox="0 0 100 100" fill="none" xmlns="http://www.w3.org/2000/svg">
<g clip-path="url(#clip0_1_2)">
<rect width="100" height="100" rx="18" fill="white"/>
<path d="M18.128 52.7H22.688V54.98H19.04L18.983 55.094L22.023 60.642C22.6437 61.7567 22.954 62.6053 22.954 63.188C22.954 64.4673 22.5297 65.4047 21.681 66H16.646V63.796H20.579L20.636 63.682L17.216 57.545C16.722 56.6583 16.475 55.9363 16.475 55.379C16.475 54.0617 17.026 53.1687 18.128 52.7ZM24.2782 66V52.7H31.0992V54.98H26.8812V58.153H30.6432V60.357H26.8812V63.796H31.1752V66H24.2782ZM32.6464 66V52.7H35.2494V63.796H39.2014V66H32.6464ZM40.495 66V52.7H43.098V66H40.495Z" fill="black"/>
<path d="M51.6585 63.796H55.0025V66H50.1765C49.3405 65.2147 48.7072 64.2203 48.2765 63.017C47.8459 61.8137 47.6305 60.5787 47.6305 59.312C47.6305 58.0327 47.8712 56.804 48.3525 55.626C48.8339 54.448 49.5495 53.4727 50.4995 52.7H55.0025V54.98H51.6585C51.3165 55.3727 51.0189 56.006 50.7655 56.88C50.5249 57.754 50.4045 58.59 50.4045 59.388C50.4045 60.186 50.5249 61.022 50.7655 61.896C51.0189 62.77 51.3165 63.4033 51.6585 63.796ZM62.108 52.7C62.9946 53.422 63.6533 54.391 64.084 55.607C64.5146 56.823 64.73 58.077 64.73 59.369C64.73 60.6483 64.521 61.8643 64.103 63.017C63.685 64.1697 63.02 65.164 62.108 66H58.194C57.282 65.164 56.617 64.1697 56.199 63.017C55.781 61.8643 55.572 60.6483 55.572 59.369C55.572 58.077 55.7873 56.823 56.218 55.607C56.6486 54.391 57.3073 53.422 58.194 52.7H62.108ZM59.467 63.796H60.835C61.1516 63.4287 61.4176 62.8333 61.633 62.01C61.861 61.174 61.975 60.2937 61.975 59.369C61.975 58.4443 61.8673 57.5767 61.652 56.766C61.4366 55.9427 61.1706 55.3473 60.854 54.98H59.467C59.1503 55.3473 58.878 55.9427 58.65 56.766C58.4346 57.5767 58.327 58.4443 58.327 59.369C58.327 60.2937 58.4346 61.174 58.65 62.01C58.878 62.8333 59.1503 63.4287 59.467 63.796ZM68.7958 63.796H70.5058C70.8605 63.3527 71.1391 62.7067 71.3418 61.858C71.5571 61.0093 71.6648 60.167 71.6648 59.331C71.6648 57.3423 71.2911 55.892 70.5438 54.98H68.7958V63.796ZM66.2118 66V52.7H71.7218C73.5205 54.296 74.4198 56.462 74.4198 59.198C74.4198 61.9213 73.5775 64.1887 71.8928 66H66.2118ZM75.8974 66V52.7H82.7184V54.98H78.5004V58.153H82.2624V60.357H78.5004V63.796H82.7944V66H75.8974Z" fill="#EE0A0A"/>
<mask id="mask0_1_2" style="mask-type:alpha" maskUnits="userSpaceOnUse" x="-14" y="10" width="129" height="41">
<rect x="-14" y="10" width="129" height="41" fill="#D9D9D9"/>
</mask>
<g mask="url(#mask0_1_2)">
<path d="M24.304 19.6H46.384V30.64H28.72L28.444 31.192L43.164 58.056C46.1693 63.4533 47.672 67.5627 47.672 70.384C47.672 76.5787 45.6173 81.1173 41.508 84H17.128V73.328H36.172L36.448 72.776L19.888 43.06C17.496 38.7667 16.3 35.2707 16.3 32.572C16.3 26.1933 18.968 21.8693 24.304 19.6Z" fill="#EE0A0A"/>
<path d="M54.084 84V19.6H66.688V73.328H85.824V84H54.084Z" fill="black"/>
</g>
<mask id="mask1_1_2" style="mask-type:alpha" maskUnits="userSpaceOnUse" x="-14" y="68" width="129" height="48">
<rect x="-14" y="68" width="129" height="48" fill="#D9D9D9"/>
</mask>
<g mask="url(#mask1_1_2)">
<path d="M24.304 19.6H46.384V30.64H28.72L28.444 31.192L43.164 58.056C46.1693 63.4533 47.672 67.5627 47.672 70.384C47.672 76.5787 45.6173 81.1173 41.508 84H17.128V73.328H36.172L36.448 72.776L19.888 43.06C17.496 38.7667 16.3 35.2707 16.3 32.572C16.3 26.1933 18.968 21.8693 24.304 19.6Z" fill="black"/>
<path d="M54.084 84V19.6H66.688V73.328H85.824V84H54.084Z" fill="#EE0A0A"/>
</g>
</g>
<rect x="0.5" y="0.5" width="99" height="99" rx="17.5" stroke="#DBD9D9" stroke-opacity="0.34"/>
<defs>
<clipPath id="clip0_1_2">
<rect width="100" height="100" rx="18" fill="white"/>
</clipPath>
</defs>
</svg>
